<mxfile host="Electron" agent="Mozilla/5.0 (Windows NT 10.0; Win64; x64) AppleWebKit/537.36 (KHTML, like Gecko) draw.io/26.1.1 Chrome/132.0.6834.210 Electron/34.3.3 Safari/537.36" version="26.1.1" pages="3">
  <diagram id="WXJ3g8MrEbQQ6QxJr4TD" name="User story">
    <mxGraphModel dx="1120" dy="532" grid="0" gridSize="10" guides="1" tooltips="1" connect="1" arrows="1" fold="1" page="0" pageScale="1" pageWidth="1169" pageHeight="1654" math="0" shadow="0">
      <root>
        <mxCell id="0" />
        <mxCell id="1" parent="0" />
      </root>
    </mxGraphModel>
  </diagram>
  <diagram name="Use case" id="edf60f1a-56cd-e834-aa8a-f176f3a09ee4">
    <mxGraphModel dx="1120" dy="932" grid="1" gridSize="10" guides="1" tooltips="1" connect="1" arrows="1" fold="1" page="0" pageScale="1" pageWidth="1169" pageHeight="1654" background="none" math="0" shadow="0">
      <root>
        <mxCell id="0" />
        <mxCell id="1" parent="0" />
        <mxCell id="8mkY-_cJ-ZecuAM7TAHI-34" value="loggin/singUp" style="rounded=0;whiteSpace=wrap;html=1;" parent="1" vertex="1">
          <mxGeometry x="378" y="20" width="120" height="60" as="geometry" />
        </mxCell>
        <mxCell id="8mkY-_cJ-ZecuAM7TAHI-35" value="add&lt;span style=&quot;background-color: initial;&quot;&gt;&amp;lt;some&amp;gt;&lt;/span&gt;" style="rounded=0;whiteSpace=wrap;html=1;" parent="1" vertex="1">
          <mxGeometry x="378" y="214" width="120" height="60" as="geometry" />
        </mxCell>
        <mxCell id="8mkY-_cJ-ZecuAM7TAHI-54" style="edgeStyle=orthogonalEdgeStyle;rounded=0;orthogonalLoop=1;jettySize=auto;html=1;entryX=1;entryY=0.25;entryDx=0;entryDy=0;" parent="1" source="8mkY-_cJ-ZecuAM7TAHI-37" target="8mkY-_cJ-ZecuAM7TAHI-35" edge="1">
          <mxGeometry relative="1" as="geometry" />
        </mxCell>
        <mxCell id="8mkY-_cJ-ZecuAM7TAHI-37" value="post" style="rounded=0;whiteSpace=wrap;html=1;" parent="1" vertex="1">
          <mxGeometry x="680" y="120" width="120" height="60" as="geometry" />
        </mxCell>
        <mxCell id="8mkY-_cJ-ZecuAM7TAHI-55" style="edgeStyle=orthogonalEdgeStyle;rounded=0;orthogonalLoop=1;jettySize=auto;html=1;exitX=0;exitY=0.5;exitDx=0;exitDy=0;entryX=1;entryY=0.25;entryDx=0;entryDy=0;" parent="1" source="8mkY-_cJ-ZecuAM7TAHI-38" target="8mkY-_cJ-ZecuAM7TAHI-35" edge="1">
          <mxGeometry relative="1" as="geometry" />
        </mxCell>
        <mxCell id="8mkY-_cJ-ZecuAM7TAHI-38" value="solution" style="rounded=0;whiteSpace=wrap;html=1;" parent="1" vertex="1">
          <mxGeometry x="680" y="190" width="120" height="60" as="geometry" />
        </mxCell>
        <mxCell id="8mkY-_cJ-ZecuAM7TAHI-56" style="edgeStyle=orthogonalEdgeStyle;rounded=0;orthogonalLoop=1;jettySize=auto;html=1;entryX=1;entryY=0.25;entryDx=0;entryDy=0;" parent="1" source="8mkY-_cJ-ZecuAM7TAHI-39" target="8mkY-_cJ-ZecuAM7TAHI-35" edge="1">
          <mxGeometry relative="1" as="geometry" />
        </mxCell>
        <mxCell id="8mkY-_cJ-ZecuAM7TAHI-39" value="event" style="rounded=0;whiteSpace=wrap;html=1;" parent="1" vertex="1">
          <mxGeometry x="680" y="260" width="120" height="60" as="geometry" />
        </mxCell>
        <mxCell id="8mkY-_cJ-ZecuAM7TAHI-57" style="edgeStyle=orthogonalEdgeStyle;rounded=0;orthogonalLoop=1;jettySize=auto;html=1;entryX=1;entryY=0.25;entryDx=0;entryDy=0;" parent="1" source="8mkY-_cJ-ZecuAM7TAHI-40" target="8mkY-_cJ-ZecuAM7TAHI-35" edge="1">
          <mxGeometry relative="1" as="geometry" />
        </mxCell>
        <mxCell id="8mkY-_cJ-ZecuAM7TAHI-58" value="&amp;lt;&amp;lt;include&amp;gt;&amp;gt;" style="edgeLabel;html=1;align=center;verticalAlign=middle;resizable=0;points=[];" parent="8mkY-_cJ-ZecuAM7TAHI-57" vertex="1" connectable="0">
          <mxGeometry x="0.7082" y="1" relative="1" as="geometry">
            <mxPoint as="offset" />
          </mxGeometry>
        </mxCell>
        <mxCell id="8mkY-_cJ-ZecuAM7TAHI-40" value="aproach" style="rounded=0;whiteSpace=wrap;html=1;" parent="1" vertex="1">
          <mxGeometry x="680" y="330" width="120" height="60" as="geometry" />
        </mxCell>
        <mxCell id="8mkY-_cJ-ZecuAM7TAHI-59" style="edgeStyle=orthogonalEdgeStyle;rounded=0;orthogonalLoop=1;jettySize=auto;html=1;entryX=0;entryY=0.25;entryDx=0;entryDy=0;" parent="1" source="8mkY-_cJ-ZecuAM7TAHI-45" target="8mkY-_cJ-ZecuAM7TAHI-34" edge="1">
          <mxGeometry relative="1" as="geometry" />
        </mxCell>
        <mxCell id="8mkY-_cJ-ZecuAM7TAHI-123" style="edgeStyle=orthogonalEdgeStyle;rounded=0;orthogonalLoop=1;jettySize=auto;html=1;entryX=0;entryY=0.5;entryDx=0;entryDy=0;" parent="1" source="8mkY-_cJ-ZecuAM7TAHI-45" target="8mkY-_cJ-ZecuAM7TAHI-122" edge="1">
          <mxGeometry relative="1" as="geometry" />
        </mxCell>
        <mxCell id="8mkY-_cJ-ZecuAM7TAHI-125" style="edgeStyle=orthogonalEdgeStyle;rounded=0;orthogonalLoop=1;jettySize=auto;html=1;entryX=0;entryY=0.5;entryDx=0;entryDy=0;" parent="1" source="8mkY-_cJ-ZecuAM7TAHI-45" target="8mkY-_cJ-ZecuAM7TAHI-97" edge="1">
          <mxGeometry relative="1" as="geometry" />
        </mxCell>
        <mxCell id="8mkY-_cJ-ZecuAM7TAHI-126" style="edgeStyle=orthogonalEdgeStyle;rounded=0;orthogonalLoop=1;jettySize=auto;html=1;entryX=0;entryY=0.5;entryDx=0;entryDy=0;" parent="1" source="8mkY-_cJ-ZecuAM7TAHI-45" target="8mkY-_cJ-ZecuAM7TAHI-90" edge="1">
          <mxGeometry relative="1" as="geometry" />
        </mxCell>
        <mxCell id="8mkY-_cJ-ZecuAM7TAHI-127" style="edgeStyle=orthogonalEdgeStyle;rounded=0;orthogonalLoop=1;jettySize=auto;html=1;entryX=0;entryY=0.5;entryDx=0;entryDy=0;" parent="1" source="8mkY-_cJ-ZecuAM7TAHI-45" target="8mkY-_cJ-ZecuAM7TAHI-74" edge="1">
          <mxGeometry relative="1" as="geometry" />
        </mxCell>
        <mxCell id="8mkY-_cJ-ZecuAM7TAHI-128" style="edgeStyle=orthogonalEdgeStyle;rounded=0;orthogonalLoop=1;jettySize=auto;html=1;entryX=0;entryY=0.5;entryDx=0;entryDy=0;" parent="1" source="8mkY-_cJ-ZecuAM7TAHI-45" target="8mkY-_cJ-ZecuAM7TAHI-62" edge="1">
          <mxGeometry relative="1" as="geometry" />
        </mxCell>
        <mxCell id="8mkY-_cJ-ZecuAM7TAHI-129" style="edgeStyle=orthogonalEdgeStyle;rounded=0;orthogonalLoop=1;jettySize=auto;html=1;entryX=0;entryY=0.5;entryDx=0;entryDy=0;" parent="1" source="8mkY-_cJ-ZecuAM7TAHI-45" target="8mkY-_cJ-ZecuAM7TAHI-35" edge="1">
          <mxGeometry relative="1" as="geometry" />
        </mxCell>
        <mxCell id="8mkY-_cJ-ZecuAM7TAHI-45" value="user" style="shape=umlActor;verticalLabelPosition=bottom;verticalAlign=top;html=1;outlineConnect=0;" parent="1" vertex="1">
          <mxGeometry x="140" y="375" width="30" height="60" as="geometry" />
        </mxCell>
        <mxCell id="8mkY-_cJ-ZecuAM7TAHI-46" value="another post" style="rounded=0;whiteSpace=wrap;html=1;" parent="1" vertex="1">
          <mxGeometry x="890" y="190" width="120" height="60" as="geometry" />
        </mxCell>
        <mxCell id="8mkY-_cJ-ZecuAM7TAHI-47" value="&amp;lt;&amp;lt;include&amp;gt;&amp;gt;" style="html=1;verticalAlign=bottom;labelBackgroundColor=none;endArrow=open;endFill=0;dashed=1;rounded=0;entryX=0;entryY=0.5;entryDx=0;entryDy=0;exitX=1;exitY=0.5;exitDx=0;exitDy=0;" parent="1" source="8mkY-_cJ-ZecuAM7TAHI-38" target="8mkY-_cJ-ZecuAM7TAHI-46" edge="1">
          <mxGeometry x="0.0106" width="160" relative="1" as="geometry">
            <mxPoint x="820" y="230" as="sourcePoint" />
            <mxPoint x="820" y="289.3718719211823" as="targetPoint" />
            <mxPoint as="offset" />
          </mxGeometry>
        </mxCell>
        <mxCell id="8mkY-_cJ-ZecuAM7TAHI-61" value="donaton" style="rounded=0;whiteSpace=wrap;html=1;" parent="1" vertex="1">
          <mxGeometry x="890" y="330" width="120" height="60" as="geometry" />
        </mxCell>
        <mxCell id="8mkY-_cJ-ZecuAM7TAHI-62" value="donate" style="rounded=0;whiteSpace=wrap;html=1;" parent="1" vertex="1">
          <mxGeometry x="378" y="480" width="120" height="60" as="geometry" />
        </mxCell>
        <mxCell id="8mkY-_cJ-ZecuAM7TAHI-63" value="&amp;lt;&amp;lt;include&amp;gt;&amp;gt;" style="html=1;verticalAlign=bottom;labelBackgroundColor=none;endArrow=open;endFill=0;dashed=1;rounded=0;exitX=0;exitY=0.5;exitDx=0;exitDy=0;" parent="1" source="8mkY-_cJ-ZecuAM7TAHI-61" target="8mkY-_cJ-ZecuAM7TAHI-40" edge="1">
          <mxGeometry width="160" relative="1" as="geometry">
            <mxPoint x="886" y="359.58000000000004" as="sourcePoint" />
            <mxPoint x="800" y="359.58000000000004" as="targetPoint" />
          </mxGeometry>
        </mxCell>
        <mxCell id="8mkY-_cJ-ZecuAM7TAHI-65" value="another aproach" style="rounded=0;whiteSpace=wrap;html=1;" parent="1" vertex="1">
          <mxGeometry x="890" y="440" width="120" height="60" as="geometry" />
        </mxCell>
        <mxCell id="8mkY-_cJ-ZecuAM7TAHI-66" value="&amp;lt;&amp;lt;include&amp;gt;&amp;gt;" style="html=1;verticalAlign=bottom;labelBackgroundColor=none;endArrow=open;endFill=0;dashed=1;rounded=0;" parent="1" edge="1">
          <mxGeometry width="160" relative="1" as="geometry">
            <mxPoint x="500" y="490" as="sourcePoint" />
            <mxPoint x="890" y="490" as="targetPoint" />
            <Array as="points" />
          </mxGeometry>
        </mxCell>
        <mxCell id="8mkY-_cJ-ZecuAM7TAHI-68" value="verify" style="rounded=0;whiteSpace=wrap;html=1;" parent="1" vertex="1">
          <mxGeometry x="680" y="20" width="120" height="60" as="geometry" />
        </mxCell>
        <mxCell id="8mkY-_cJ-ZecuAM7TAHI-69" value="gold" style="rounded=0;whiteSpace=wrap;html=1;" parent="1" vertex="1">
          <mxGeometry x="680" y="-50" width="120" height="60" as="geometry" />
        </mxCell>
        <mxCell id="8mkY-_cJ-ZecuAM7TAHI-70" value="&amp;lt;&amp;lt;extend&amp;gt;&amp;gt;" style="edgeStyle=none;html=1;startArrow=open;endArrow=none;startSize=12;verticalAlign=bottom;dashed=1;labelBackgroundColor=none;rounded=0;exitX=1;exitY=0.5;exitDx=0;exitDy=0;entryX=0;entryY=0.5;entryDx=0;entryDy=0;" parent="1" source="8mkY-_cJ-ZecuAM7TAHI-34" target="8mkY-_cJ-ZecuAM7TAHI-68" edge="1">
          <mxGeometry x="-0.2088" width="160" relative="1" as="geometry">
            <mxPoint x="690" y="120" as="sourcePoint" />
            <mxPoint x="850" y="120" as="targetPoint" />
            <mxPoint as="offset" />
          </mxGeometry>
        </mxCell>
        <mxCell id="8mkY-_cJ-ZecuAM7TAHI-71" value="Condition: {boolean expression}&#xa;+ Establishing golden user criteria" style="shape=note;size=15;spacingLeft=5;align=left;whiteSpace=wrap;" parent="1" vertex="1">
          <mxGeometry x="550" y="-100" width="230" height="40" as="geometry" />
        </mxCell>
        <mxCell id="8mkY-_cJ-ZecuAM7TAHI-72" value="&amp;lt;&amp;lt;extend&amp;gt;&amp;gt;" style="align=right;html=1;verticalAlign=bottom;rounded=0;labelBackgroundColor=none;endArrow=open;endSize=12;dashed=1;entryX=0.5;entryY=0;entryDx=0;entryDy=0;exitX=0;exitY=0.5;exitDx=0;exitDy=0;" parent="1" source="8mkY-_cJ-ZecuAM7TAHI-69" target="8mkY-_cJ-ZecuAM7TAHI-34" edge="1">
          <mxGeometry x="-0.3617" relative="1" as="geometry">
            <mxPoint x="520" y="-220" as="targetPoint" />
            <mxPoint x="680" y="-220" as="sourcePoint" />
            <Array as="points">
              <mxPoint x="440" y="-20" />
            </Array>
            <mxPoint x="1" as="offset" />
          </mxGeometry>
        </mxCell>
        <mxCell id="8mkY-_cJ-ZecuAM7TAHI-73" value="" style="edgeStyle=none;html=1;endArrow=none;rounded=0;labelBackgroundColor=none;dashed=1;exitX=0.5;exitY=1;" parent="1" source="8mkY-_cJ-ZecuAM7TAHI-71" edge="1">
          <mxGeometry relative="1" as="geometry">
            <mxPoint x="630" y="-20" as="targetPoint" />
          </mxGeometry>
        </mxCell>
        <mxCell id="8mkY-_cJ-ZecuAM7TAHI-74" value="reaction" style="rounded=0;whiteSpace=wrap;html=1;" parent="1" vertex="1">
          <mxGeometry x="378" y="550" width="122" height="60" as="geometry" />
        </mxCell>
        <mxCell id="8mkY-_cJ-ZecuAM7TAHI-77" value="&amp;lt;&amp;lt;include&amp;gt;&amp;gt;" style="html=1;verticalAlign=bottom;labelBackgroundColor=none;endArrow=open;endFill=0;dashed=1;rounded=0;entryX=1;entryY=0;entryDx=0;entryDy=0;exitX=1;exitY=0.833;exitDx=0;exitDy=0;exitPerimeter=0;" parent="1" source="8mkY-_cJ-ZecuAM7TAHI-74" target="8mkY-_cJ-ZecuAM7TAHI-46" edge="1">
          <mxGeometry x="-0.6206" width="160" relative="1" as="geometry">
            <mxPoint x="500" y="590" as="sourcePoint" />
            <mxPoint x="650" y="600" as="targetPoint" />
            <Array as="points">
              <mxPoint x="1090" y="600" />
              <mxPoint x="1090" y="190" />
            </Array>
            <mxPoint as="offset" />
          </mxGeometry>
        </mxCell>
        <mxCell id="8mkY-_cJ-ZecuAM7TAHI-78" value="" style="html=1;verticalAlign=bottom;labelBackgroundColor=none;endArrow=open;endFill=0;dashed=1;rounded=0;exitX=1;exitY=0.5;exitDx=0;exitDy=0;entryX=1;entryY=0.5;entryDx=0;entryDy=0;" parent="1" source="8mkY-_cJ-ZecuAM7TAHI-74" target="8mkY-_cJ-ZecuAM7TAHI-65" edge="1">
          <mxGeometry width="160" relative="1" as="geometry">
            <mxPoint x="906" y="241" as="sourcePoint" />
            <mxPoint x="820" y="241" as="targetPoint" />
            <Array as="points">
              <mxPoint x="1050" y="580" />
              <mxPoint x="1050" y="470" />
            </Array>
          </mxGeometry>
        </mxCell>
        <mxCell id="8mkY-_cJ-ZecuAM7TAHI-79" value="anothr reaction" style="rounded=0;whiteSpace=wrap;html=1;" parent="1" vertex="1">
          <mxGeometry x="890" y="120" width="120" height="60" as="geometry" />
        </mxCell>
        <mxCell id="8mkY-_cJ-ZecuAM7TAHI-80" value="&amp;lt;&amp;lt;include&amp;gt;&amp;gt;" style="html=1;verticalAlign=bottom;labelBackgroundColor=none;endArrow=open;endFill=0;dashed=1;rounded=0;exitX=0;exitY=0.5;exitDx=0;exitDy=0;" parent="1" source="8mkY-_cJ-ZecuAM7TAHI-79" target="8mkY-_cJ-ZecuAM7TAHI-37" edge="1">
          <mxGeometry width="160" relative="1" as="geometry">
            <mxPoint x="876" y="149.41" as="sourcePoint" />
            <mxPoint x="800" y="149" as="targetPoint" />
          </mxGeometry>
        </mxCell>
        <mxCell id="8mkY-_cJ-ZecuAM7TAHI-81" value="&amp;lt;&amp;lt;include&amp;gt;&amp;gt;" style="html=1;verticalAlign=bottom;labelBackgroundColor=none;endArrow=open;endFill=0;dashed=1;rounded=0;entryX=1;entryY=1;entryDx=0;entryDy=0;exitX=1;exitY=0.75;exitDx=0;exitDy=0;" parent="1" source="8mkY-_cJ-ZecuAM7TAHI-62" target="8mkY-_cJ-ZecuAM7TAHI-46" edge="1">
          <mxGeometry x="-0.5294" width="160" relative="1" as="geometry">
            <mxPoint x="500" y="480" as="sourcePoint" />
            <mxPoint x="1010" y="200" as="targetPoint" />
            <Array as="points">
              <mxPoint x="1070" y="520" />
              <mxPoint x="1070" y="250" />
            </Array>
            <mxPoint as="offset" />
          </mxGeometry>
        </mxCell>
        <mxCell id="8mkY-_cJ-ZecuAM7TAHI-83" value="offer" style="rounded=0;whiteSpace=wrap;html=1;" parent="1" vertex="1">
          <mxGeometry x="379" y="690" width="120" height="60" as="geometry" />
        </mxCell>
        <mxCell id="8mkY-_cJ-ZecuAM7TAHI-86" value="another accounts" style="rounded=0;whiteSpace=wrap;html=1;" parent="1" vertex="1">
          <mxGeometry x="890" y="690" width="120" height="60" as="geometry" />
        </mxCell>
        <mxCell id="8mkY-_cJ-ZecuAM7TAHI-87" value="&amp;lt;&amp;lt;include&amp;gt;&amp;gt;" style="html=1;verticalAlign=bottom;labelBackgroundColor=none;endArrow=open;endFill=0;dashed=1;rounded=0;entryX=1;entryY=0.5;entryDx=0;entryDy=0;" parent="1" source="8mkY-_cJ-ZecuAM7TAHI-86" target="8mkY-_cJ-ZecuAM7TAHI-83" edge="1">
          <mxGeometry width="160" relative="1" as="geometry">
            <mxPoint x="890" y="719.4100000000001" as="sourcePoint" />
            <mxPoint x="804" y="719.4100000000001" as="targetPoint" />
          </mxGeometry>
        </mxCell>
        <mxCell id="8mkY-_cJ-ZecuAM7TAHI-88" value="" style="html=1;verticalAlign=bottom;labelBackgroundColor=none;endArrow=open;endFill=0;dashed=1;rounded=0;exitX=1;exitY=0.5;exitDx=0;exitDy=0;entryX=0;entryY=0.5;entryDx=0;entryDy=0;" parent="1" source="8mkY-_cJ-ZecuAM7TAHI-83" target="8mkY-_cJ-ZecuAM7TAHI-86" edge="1">
          <mxGeometry width="160" relative="1" as="geometry">
            <mxPoint x="500" y="740" as="sourcePoint" />
            <mxPoint x="892" y="740" as="targetPoint" />
            <Array as="points" />
          </mxGeometry>
        </mxCell>
        <mxCell id="8mkY-_cJ-ZecuAM7TAHI-90" value="resume/cv" style="rounded=0;whiteSpace=wrap;html=1;" parent="1" vertex="1">
          <mxGeometry x="378" y="760" width="120" height="60" as="geometry" />
        </mxCell>
        <mxCell id="8mkY-_cJ-ZecuAM7TAHI-92" value="recommender&lt;div&gt;system&lt;/div&gt;" style="rounded=0;whiteSpace=wrap;html=1;" parent="1" vertex="1">
          <mxGeometry x="890" y="760" width="120" height="60" as="geometry" />
        </mxCell>
        <mxCell id="8mkY-_cJ-ZecuAM7TAHI-93" value="&amp;lt;&amp;lt;include&amp;gt;&amp;gt;" style="html=1;verticalAlign=bottom;labelBackgroundColor=none;endArrow=open;endFill=0;dashed=1;rounded=0;entryX=0;entryY=0.5;entryDx=0;entryDy=0;exitX=1;exitY=0.5;exitDx=0;exitDy=0;" parent="1" source="8mkY-_cJ-ZecuAM7TAHI-90" target="8mkY-_cJ-ZecuAM7TAHI-92" edge="1">
          <mxGeometry x="-0.0204" width="160" relative="1" as="geometry">
            <mxPoint x="520" y="800" as="sourcePoint" />
            <mxPoint x="680" y="788.89" as="targetPoint" />
            <Array as="points">
              <mxPoint x="800" y="790" />
            </Array>
            <mxPoint x="-1" as="offset" />
          </mxGeometry>
        </mxCell>
        <mxCell id="8mkY-_cJ-ZecuAM7TAHI-95" value="" style="html=1;verticalAlign=bottom;labelBackgroundColor=none;endArrow=open;endFill=0;dashed=1;rounded=0;exitX=1;exitY=0;exitDx=0;exitDy=0;entryX=1;entryY=0.5;entryDx=0;entryDy=0;" parent="1" source="8mkY-_cJ-ZecuAM7TAHI-92" target="8mkY-_cJ-ZecuAM7TAHI-86" edge="1">
          <mxGeometry width="160" relative="1" as="geometry">
            <mxPoint x="1020" y="789.38" as="sourcePoint" />
            <mxPoint x="1411" y="789.38" as="targetPoint" />
            <Array as="points">
              <mxPoint x="1110" y="760" />
              <mxPoint x="1110" y="720" />
            </Array>
          </mxGeometry>
        </mxCell>
        <mxCell id="8mkY-_cJ-ZecuAM7TAHI-96" value="&amp;lt;&amp;lt;include&amp;gt;&amp;gt;" style="edgeLabel;html=1;align=center;verticalAlign=middle;resizable=0;points=[];" parent="8mkY-_cJ-ZecuAM7TAHI-95" vertex="1" connectable="0">
          <mxGeometry x="-0.0147" relative="1" as="geometry">
            <mxPoint as="offset" />
          </mxGeometry>
        </mxCell>
        <mxCell id="8mkY-_cJ-ZecuAM7TAHI-97" value="explore" style="rounded=0;whiteSpace=wrap;html=1;" parent="1" vertex="1">
          <mxGeometry x="378" y="830" width="120" height="60" as="geometry" />
        </mxCell>
        <mxCell id="8mkY-_cJ-ZecuAM7TAHI-99" value="&amp;lt;&amp;lt;include&amp;gt;&amp;gt;" style="html=1;verticalAlign=bottom;labelBackgroundColor=none;endArrow=open;endFill=0;dashed=1;rounded=0;entryX=1;entryY=0.5;entryDx=0;entryDy=0;exitX=1;exitY=1;exitDx=0;exitDy=0;" parent="1" source="8mkY-_cJ-ZecuAM7TAHI-92" target="8mkY-_cJ-ZecuAM7TAHI-97" edge="1">
          <mxGeometry x="0.4894" width="160" relative="1" as="geometry">
            <mxPoint x="1010" y="805" as="sourcePoint" />
            <mxPoint x="1180" y="240" as="targetPoint" />
            <Array as="points">
              <mxPoint x="1110" y="820" />
              <mxPoint x="1110" y="860" />
            </Array>
            <mxPoint as="offset" />
          </mxGeometry>
        </mxCell>
        <mxCell id="8mkY-_cJ-ZecuAM7TAHI-100" value="&amp;lt;&amp;lt;include&amp;gt;&amp;gt;" style="html=1;verticalAlign=bottom;labelBackgroundColor=none;endArrow=open;endFill=0;dashed=1;rounded=0;exitX=1;exitY=0.5;exitDx=0;exitDy=0;" parent="1" source="8mkY-_cJ-ZecuAM7TAHI-46" edge="1">
          <mxGeometry x="0.0106" width="160" relative="1" as="geometry">
            <mxPoint x="1100" y="230" as="sourcePoint" />
            <mxPoint x="1010" y="780" as="targetPoint" />
            <mxPoint as="offset" />
            <Array as="points">
              <mxPoint x="1160" y="220" />
              <mxPoint x="1160" y="780" />
            </Array>
          </mxGeometry>
        </mxCell>
        <mxCell id="8mkY-_cJ-ZecuAM7TAHI-103" value="&amp;lt;&amp;lt;include&amp;gt;&amp;gt;" style="html=1;verticalAlign=bottom;labelBackgroundColor=none;endArrow=open;endFill=0;dashed=1;rounded=0;entryX=1;entryY=0.75;entryDx=0;entryDy=0;exitX=0.5;exitY=0;exitDx=0;exitDy=0;" parent="1" source="8mkY-_cJ-ZecuAM7TAHI-37" target="8mkY-_cJ-ZecuAM7TAHI-92" edge="1">
          <mxGeometry x="-0.4473" width="160" relative="1" as="geometry">
            <mxPoint x="800" y="100" as="sourcePoint" />
            <mxPoint x="890" y="100" as="targetPoint" />
            <mxPoint as="offset" />
            <Array as="points">
              <mxPoint x="740" y="90" />
              <mxPoint x="1200" y="90" />
              <mxPoint x="1200" y="805" />
            </Array>
          </mxGeometry>
        </mxCell>
        <mxCell id="8mkY-_cJ-ZecuAM7TAHI-110" style="edgeStyle=orthogonalEdgeStyle;rounded=0;orthogonalLoop=1;jettySize=auto;html=1;entryX=0;entryY=0.5;entryDx=0;entryDy=0;" parent="1" source="8mkY-_cJ-ZecuAM7TAHI-104" target="8mkY-_cJ-ZecuAM7TAHI-109" edge="1">
          <mxGeometry relative="1" as="geometry" />
        </mxCell>
        <mxCell id="8mkY-_cJ-ZecuAM7TAHI-104" value="data basket" style="shape=cylinder3;whiteSpace=wrap;html=1;boundedLbl=1;backgroundOutline=1;size=15;" parent="1" vertex="1">
          <mxGeometry x="610" y="380" width="60" height="80" as="geometry" />
        </mxCell>
        <mxCell id="8mkY-_cJ-ZecuAM7TAHI-108" style="edgeStyle=orthogonalEdgeStyle;rounded=0;orthogonalLoop=1;jettySize=auto;html=1;exitX=1;exitY=0.5;exitDx=0;exitDy=0;entryX=0.5;entryY=0;entryDx=0;entryDy=0;" parent="1" source="8mkY-_cJ-ZecuAM7TAHI-106" target="0D7yS1YFVfzuCx5frpwH-1" edge="1">
          <mxGeometry relative="1" as="geometry" />
        </mxCell>
        <mxCell id="8mkY-_cJ-ZecuAM7TAHI-106" value="account" style="rounded=0;whiteSpace=wrap;html=1;" parent="1" vertex="1">
          <mxGeometry x="378" y="390" width="120" height="60" as="geometry" />
        </mxCell>
        <mxCell id="8mkY-_cJ-ZecuAM7TAHI-109" value="data&lt;div&gt;api&lt;/div&gt;" style="rounded=0;whiteSpace=wrap;html=1;" parent="1" vertex="1">
          <mxGeometry x="1230" y="390" width="120" height="60" as="geometry" />
        </mxCell>
        <mxCell id="8mkY-_cJ-ZecuAM7TAHI-111" value="" style="html=1;verticalLabelPosition=bottom;align=center;labelBackgroundColor=#ffffff;verticalAlign=top;strokeWidth=2;strokeColor=#2D7600;shadow=0;dashed=0;shape=mxgraph.ios7.icons.link;fillColor=#60a917;fontColor=#ffffff;" parent="1" vertex="1">
          <mxGeometry x="379" y="390" width="30" height="30" as="geometry" />
        </mxCell>
        <mxCell id="8mkY-_cJ-ZecuAM7TAHI-112" value="" style="html=1;verticalLabelPosition=bottom;align=center;labelBackgroundColor=#ffffff;verticalAlign=top;strokeWidth=2;shadow=0;dashed=0;shape=mxgraph.ios7.icons.link;" parent="1" vertex="1">
          <mxGeometry x="379" y="480" width="30" height="30" as="geometry" />
        </mxCell>
        <mxCell id="8mkY-_cJ-ZecuAM7TAHI-114" value="" style="html=1;verticalLabelPosition=bottom;align=center;labelBackgroundColor=#ffffff;verticalAlign=top;strokeWidth=2;shadow=0;dashed=0;shape=mxgraph.ios7.icons.link;" parent="1" vertex="1">
          <mxGeometry x="379" y="214" width="30" height="30" as="geometry" />
        </mxCell>
        <mxCell id="8mkY-_cJ-ZecuAM7TAHI-117" value="" style="html=1;verticalLabelPosition=bottom;align=center;labelBackgroundColor=#ffffff;verticalAlign=top;strokeWidth=2;shadow=0;dashed=0;shape=mxgraph.ios7.icons.link;" parent="1" vertex="1">
          <mxGeometry x="379" y="690" width="30" height="30" as="geometry" />
        </mxCell>
        <mxCell id="8mkY-_cJ-ZecuAM7TAHI-118" value="" style="html=1;verticalLabelPosition=bottom;align=center;labelBackgroundColor=#ffffff;verticalAlign=top;strokeWidth=2;shadow=0;dashed=0;shape=mxgraph.ios7.icons.link;" parent="1" vertex="1">
          <mxGeometry x="378" y="20" width="30" height="30" as="geometry" />
        </mxCell>
        <mxCell id="8mkY-_cJ-ZecuAM7TAHI-119" value="" style="html=1;verticalLabelPosition=bottom;align=center;labelBackgroundColor=#ffffff;verticalAlign=top;strokeWidth=2;shadow=0;dashed=0;shape=mxgraph.ios7.icons.link;" parent="1" vertex="1">
          <mxGeometry x="379" y="760" width="30" height="30" as="geometry" />
        </mxCell>
        <mxCell id="8mkY-_cJ-ZecuAM7TAHI-120" value="" style="html=1;verticalLabelPosition=bottom;align=center;labelBackgroundColor=#ffffff;verticalAlign=top;strokeWidth=2;shadow=0;dashed=0;shape=mxgraph.ios7.icons.link;" parent="1" vertex="1">
          <mxGeometry x="379" y="830" width="30" height="30" as="geometry" />
        </mxCell>
        <mxCell id="8mkY-_cJ-ZecuAM7TAHI-122" value="home&lt;div&gt;statement&lt;/div&gt;" style="rounded=0;whiteSpace=wrap;html=1;" parent="1" vertex="1">
          <mxGeometry x="378" y="280" width="120" height="60" as="geometry" />
        </mxCell>
        <mxCell id="8mkY-_cJ-ZecuAM7TAHI-132" value="&amp;lt;&amp;lt;include&amp;gt;&amp;gt;" style="html=1;verticalAlign=bottom;labelBackgroundColor=none;endArrow=open;endFill=0;dashed=1;rounded=0;entryX=0.5;entryY=1;entryDx=0;entryDy=0;exitX=0.5;exitY=0;exitDx=0;exitDy=0;" parent="1" source="8mkY-_cJ-ZecuAM7TAHI-106" target="8mkY-_cJ-ZecuAM7TAHI-122" edge="1">
          <mxGeometry x="-0.6" width="160" relative="1" as="geometry">
            <mxPoint x="438" y="380" as="sourcePoint" />
            <mxPoint x="410" y="360" as="targetPoint" />
            <mxPoint y="1" as="offset" />
          </mxGeometry>
        </mxCell>
        <mxCell id="8mkY-_cJ-ZecuAM7TAHI-147" style="edgeStyle=orthogonalEdgeStyle;rounded=0;orthogonalLoop=1;jettySize=auto;html=1;entryX=1;entryY=0.5;entryDx=0;entryDy=0;" parent="1" source="8mkY-_cJ-ZecuAM7TAHI-133" target="8mkY-_cJ-ZecuAM7TAHI-142" edge="1">
          <mxGeometry relative="1" as="geometry" />
        </mxCell>
        <mxCell id="8mkY-_cJ-ZecuAM7TAHI-133" value="data&lt;div&gt;buyer&lt;/div&gt;" style="shape=umlActor;verticalLabelPosition=bottom;verticalAlign=top;html=1;outlineConnect=0;" parent="1" vertex="1">
          <mxGeometry x="1640" y="380" width="30" height="60" as="geometry" />
        </mxCell>
        <mxCell id="8mkY-_cJ-ZecuAM7TAHI-137" value="seo" style="rounded=0;whiteSpace=wrap;html=1;" parent="1" vertex="1">
          <mxGeometry x="1230" y="320" width="120" height="60" as="geometry" />
        </mxCell>
        <mxCell id="8mkY-_cJ-ZecuAM7TAHI-139" value="&amp;lt;&amp;lt;include&amp;gt;&amp;gt;" style="html=1;verticalAlign=bottom;labelBackgroundColor=none;endArrow=open;endFill=0;dashed=1;rounded=0;entryX=1;entryY=0;entryDx=0;entryDy=0;exitX=1;exitY=0;exitDx=0;exitDy=0;" parent="1" source="8mkY-_cJ-ZecuAM7TAHI-109" target="8mkY-_cJ-ZecuAM7TAHI-137" edge="1">
          <mxGeometry x="-0.2" width="160" relative="1" as="geometry">
            <mxPoint x="1350" y="400" as="sourcePoint" />
            <mxPoint x="1440" y="390" as="targetPoint" />
            <mxPoint as="offset" />
            <Array as="points">
              <mxPoint x="1390" y="390" />
              <mxPoint x="1390" y="320" />
            </Array>
          </mxGeometry>
        </mxCell>
        <mxCell id="8mkY-_cJ-ZecuAM7TAHI-153" style="edgeStyle=orthogonalEdgeStyle;rounded=0;orthogonalLoop=1;jettySize=auto;html=1;" parent="1" source="8mkY-_cJ-ZecuAM7TAHI-141" target="8mkY-_cJ-ZecuAM7TAHI-152" edge="1">
          <mxGeometry relative="1" as="geometry" />
        </mxCell>
        <mxCell id="8mkY-_cJ-ZecuAM7TAHI-141" value="admin" style="shape=umlActor;verticalLabelPosition=bottom;verticalAlign=top;html=1;outlineConnect=0;" parent="1" vertex="1">
          <mxGeometry x="1640" y="500" width="30" height="60" as="geometry" />
        </mxCell>
        <mxCell id="8mkY-_cJ-ZecuAM7TAHI-142" value="access&lt;div&gt;account&lt;/div&gt;" style="rounded=0;whiteSpace=wrap;html=1;" parent="1" vertex="1">
          <mxGeometry x="1480" y="260" width="120" height="60" as="geometry" />
        </mxCell>
        <mxCell id="8mkY-_cJ-ZecuAM7TAHI-143" value="Condition: {boolean expression}&#xa;- Volume of access time" style="shape=note;size=15;spacingLeft=5;align=left;whiteSpace=wrap;" parent="1" vertex="1">
          <mxGeometry x="1410" y="209" width="230" height="40" as="geometry" />
        </mxCell>
        <mxCell id="8mkY-_cJ-ZecuAM7TAHI-144" value="" style="edgeStyle=none;html=1;endArrow=none;rounded=0;labelBackgroundColor=none;dashed=1;exitX=0.5;exitY=1;" parent="1" edge="1">
          <mxGeometry relative="1" as="geometry">
            <mxPoint x="1450" y="289" as="targetPoint" />
            <mxPoint x="1470" y="249" as="sourcePoint" />
          </mxGeometry>
        </mxCell>
        <mxCell id="8mkY-_cJ-ZecuAM7TAHI-146" value="&amp;lt;&amp;lt;extend&amp;gt;&amp;gt;" style="align=right;html=1;verticalAlign=bottom;rounded=0;labelBackgroundColor=none;endArrow=open;endSize=12;dashed=1;exitX=1;exitY=0.75;exitDx=0;exitDy=0;entryX=0;entryY=0.5;entryDx=0;entryDy=0;" parent="1" source="8mkY-_cJ-ZecuAM7TAHI-109" target="8mkY-_cJ-ZecuAM7TAHI-142" edge="1">
          <mxGeometry x="-0.4286" y="-5" relative="1" as="geometry">
            <mxPoint x="1462" y="290" as="targetPoint" />
            <mxPoint x="1350" y="405" as="sourcePoint" />
            <Array as="points">
              <mxPoint x="1430" y="435" />
              <mxPoint x="1430" y="290" />
            </Array>
            <mxPoint as="offset" />
          </mxGeometry>
        </mxCell>
        <mxCell id="8mkY-_cJ-ZecuAM7TAHI-152" value="pannel&lt;div&gt;admin&lt;/div&gt;" style="rounded=0;whiteSpace=wrap;html=1;" parent="1" vertex="1">
          <mxGeometry x="1480" y="500" width="120" height="60" as="geometry" />
        </mxCell>
        <mxCell id="8mkY-_cJ-ZecuAM7TAHI-156" value="&amp;lt;&amp;lt;include&amp;gt;&amp;gt;" style="align=right;html=1;verticalAlign=bottom;rounded=0;labelBackgroundColor=none;endArrow=open;endSize=12;dashed=1;exitX=0.5;exitY=1;exitDx=0;exitDy=0;" parent="1" source="8mkY-_cJ-ZecuAM7TAHI-142" target="8mkY-_cJ-ZecuAM7TAHI-152" edge="1">
          <mxGeometry x="0.2222" y="30" relative="1" as="geometry">
            <mxPoint x="1460" y="455" as="targetPoint" />
            <mxPoint x="1590" y="340" as="sourcePoint" />
            <Array as="points">
              <mxPoint x="1540" y="340" />
              <mxPoint x="1540" y="455" />
            </Array>
            <mxPoint as="offset" />
          </mxGeometry>
        </mxCell>
        <mxCell id="8mkY-_cJ-ZecuAM7TAHI-157" value="" style="html=1;verticalLabelPosition=bottom;align=center;labelBackgroundColor=#ffffff;verticalAlign=top;strokeWidth=2;strokeColor=#2D7600;shadow=0;dashed=0;shape=mxgraph.ios7.icons.link;fillColor=#60a917;fontColor=#ffffff;" parent="1" vertex="1">
          <mxGeometry x="1480" y="500" width="30" height="30" as="geometry" />
        </mxCell>
        <mxCell id="8mkY-_cJ-ZecuAM7TAHI-158" value="&amp;lt;&amp;lt;include&amp;gt;&amp;gt;" style="align=right;html=1;verticalAlign=bottom;rounded=0;labelBackgroundColor=none;endArrow=open;endSize=12;dashed=1;exitX=0.5;exitY=1;exitDx=0;exitDy=0;entryX=0;entryY=0.5;entryDx=0;entryDy=0;" parent="1" source="8mkY-_cJ-ZecuAM7TAHI-109" target="8mkY-_cJ-ZecuAM7TAHI-152" edge="1">
          <mxGeometry x="-0.1852" y="30" relative="1" as="geometry">
            <mxPoint x="1300" y="640" as="targetPoint" />
            <mxPoint x="1300" y="460" as="sourcePoint" />
            <Array as="points">
              <mxPoint x="1290" y="530" />
            </Array>
            <mxPoint as="offset" />
          </mxGeometry>
        </mxCell>
        <mxCell id="8mkY-_cJ-ZecuAM7TAHI-161" value="&amp;lt;&amp;lt;include&amp;gt;&amp;gt;" style="html=1;verticalAlign=bottom;labelBackgroundColor=none;endArrow=open;endFill=0;dashed=1;rounded=0;entryX=-0.026;entryY=0.899;entryDx=0;entryDy=0;exitX=0;exitY=0.5;exitDx=0;exitDy=0;entryPerimeter=0;" parent="1" source="8mkY-_cJ-ZecuAM7TAHI-137" target="8mkY-_cJ-ZecuAM7TAHI-152" edge="1">
          <mxGeometry x="0.1912" y="1" width="160" relative="1" as="geometry">
            <mxPoint x="1390" y="565" as="sourcePoint" />
            <mxPoint x="1390" y="495" as="targetPoint" />
            <mxPoint as="offset" />
            <Array as="points">
              <mxPoint x="1210" y="350" />
              <mxPoint x="1210" y="550" />
            </Array>
          </mxGeometry>
        </mxCell>
        <mxCell id="8mkY-_cJ-ZecuAM7TAHI-162" style="edgeStyle=orthogonalEdgeStyle;rounded=0;orthogonalLoop=1;jettySize=auto;html=1;entryX=0.5;entryY=1;entryDx=0;entryDy=0;entryPerimeter=0;exitX=0.5;exitY=1;exitDx=0;exitDy=0;" parent="1" source="8mkY-_cJ-ZecuAM7TAHI-152" target="8mkY-_cJ-ZecuAM7TAHI-104" edge="1">
          <mxGeometry relative="1" as="geometry">
            <Array as="points">
              <mxPoint x="1540" y="660" />
              <mxPoint x="640" y="660" />
            </Array>
          </mxGeometry>
        </mxCell>
        <mxCell id="0D7yS1YFVfzuCx5frpwH-2" style="edgeStyle=orthogonalEdgeStyle;rounded=0;orthogonalLoop=1;jettySize=auto;html=1;" edge="1" parent="1" source="0D7yS1YFVfzuCx5frpwH-1" target="8mkY-_cJ-ZecuAM7TAHI-104">
          <mxGeometry relative="1" as="geometry" />
        </mxCell>
        <mxCell id="0D7yS1YFVfzuCx5frpwH-1" value="Encryptor&lt;div&gt;without return&lt;/div&gt;" style="shape=trapezoid;perimeter=trapezoidPerimeter;whiteSpace=wrap;html=1;fixedSize=1;rotation=-90;" vertex="1" parent="1">
          <mxGeometry x="508.75" y="401.56" width="101.25" height="38.44" as="geometry" />
        </mxCell>
      </root>
    </mxGraphModel>
  </diagram>
  <diagram id="10FTwGjFX3bhPOgEFISu" name="Activity">
    <mxGraphModel dx="2320" dy="1372" grid="1" gridSize="10" guides="1" tooltips="1" connect="1" arrows="1" fold="1" page="0" pageScale="1" pageWidth="1169" pageHeight="1654" math="0" shadow="0">
      <root>
        <mxCell id="0" />
        <mxCell id="1" parent="0" />
        <mxCell id="ndzj0iuBM3xcI90dh0e0-34" value="" style="ellipse;html=1;shape=startState;fillColor=#000000;strokeColor=#ff0000;" vertex="1" parent="1">
          <mxGeometry x="-395" y="-520" width="30" height="30" as="geometry" />
        </mxCell>
        <mxCell id="ndzj0iuBM3xcI90dh0e0-35" value="" style="edgeStyle=orthogonalEdgeStyle;html=1;verticalAlign=bottom;endArrow=open;endSize=8;strokeColor=#ff0000;rounded=0;entryX=0.5;entryY=0;entryDx=0;entryDy=0;" edge="1" source="ndzj0iuBM3xcI90dh0e0-34" parent="1" target="ndzj0iuBM3xcI90dh0e0-36">
          <mxGeometry relative="1" as="geometry">
            <mxPoint x="-425" y="-430" as="targetPoint" />
          </mxGeometry>
        </mxCell>
        <mxCell id="ndzj0iuBM3xcI90dh0e0-36" value="loggin" style="rhombus;whiteSpace=wrap;html=1;fontColor=#000000;fillColor=#ffffc0;strokeColor=#ff0000;" vertex="1" parent="1">
          <mxGeometry x="-420" y="-390" width="80" height="40" as="geometry" />
        </mxCell>
        <mxCell id="ndzj0iuBM3xcI90dh0e0-37" value="no" style="edgeStyle=orthogonalEdgeStyle;html=1;align=left;verticalAlign=bottom;endArrow=open;endSize=8;strokeColor=#ff0000;rounded=0;" edge="1" source="ndzj0iuBM3xcI90dh0e0-36" parent="1">
          <mxGeometry x="-1" relative="1" as="geometry">
            <mxPoint x="-290" y="-370" as="targetPoint" />
          </mxGeometry>
        </mxCell>
        <mxCell id="ndzj0iuBM3xcI90dh0e0-38" value="yes" style="edgeStyle=orthogonalEdgeStyle;html=1;align=left;verticalAlign=top;endArrow=open;endSize=8;strokeColor=#ff0000;rounded=0;entryX=0.5;entryY=0;entryDx=0;entryDy=0;" edge="1" source="ndzj0iuBM3xcI90dh0e0-36" parent="1" target="ndzj0iuBM3xcI90dh0e0-39">
          <mxGeometry x="-1" relative="1" as="geometry">
            <mxPoint x="-380" y="-300" as="targetPoint" />
          </mxGeometry>
        </mxCell>
        <mxCell id="ndzj0iuBM3xcI90dh0e0-39" value="home page" style="html=1;whiteSpace=wrap;" vertex="1" parent="1">
          <mxGeometry x="-435" y="-280" width="110" height="50" as="geometry" />
        </mxCell>
        <mxCell id="ndzj0iuBM3xcI90dh0e0-40" value="" style="shape=line;html=1;strokeWidth=6;strokeColor=#ff0000;" vertex="1" parent="1">
          <mxGeometry x="-530" y="-190" width="300" height="10" as="geometry" />
        </mxCell>
        <mxCell id="ndzj0iuBM3xcI90dh0e0-41" value="" style="edgeStyle=orthogonalEdgeStyle;html=1;verticalAlign=bottom;endArrow=open;endSize=8;strokeColor=#ff0000;rounded=0;entryX=0.5;entryY=0;entryDx=0;entryDy=0;" edge="1" source="ndzj0iuBM3xcI90dh0e0-40" parent="1" target="ndzj0iuBM3xcI90dh0e0-46">
          <mxGeometry relative="1" as="geometry">
            <mxPoint x="-430" y="-100" as="targetPoint" />
            <Array as="points">
              <mxPoint x="-435" y="-160" />
              <mxPoint x="-435" y="-160" />
            </Array>
          </mxGeometry>
        </mxCell>
        <mxCell id="ndzj0iuBM3xcI90dh0e0-42" style="edgeStyle=orthogonalEdgeStyle;rounded=0;orthogonalLoop=1;jettySize=auto;html=1;entryX=0.5;entryY=0.4;entryDx=0;entryDy=0;entryPerimeter=0;" edge="1" parent="1" source="ndzj0iuBM3xcI90dh0e0-39" target="ndzj0iuBM3xcI90dh0e0-40">
          <mxGeometry relative="1" as="geometry" />
        </mxCell>
        <mxCell id="ndzj0iuBM3xcI90dh0e0-43" value="" style="edgeStyle=orthogonalEdgeStyle;html=1;verticalAlign=bottom;endArrow=open;endSize=8;strokeColor=#ff0000;rounded=0;exitX=1;exitY=0.5;exitDx=0;exitDy=0;exitPerimeter=0;entryX=0.5;entryY=0;entryDx=0;entryDy=0;" edge="1" parent="1" source="ndzj0iuBM3xcI90dh0e0-40" target="ndzj0iuBM3xcI90dh0e0-47">
          <mxGeometry relative="1" as="geometry">
            <mxPoint x="-320" y="-100" as="targetPoint" />
            <mxPoint x="-420" y="-170" as="sourcePoint" />
            <Array as="points">
              <mxPoint x="-325" y="-185" />
            </Array>
          </mxGeometry>
        </mxCell>
        <mxCell id="ndzj0iuBM3xcI90dh0e0-44" value="" style="edgeStyle=orthogonalEdgeStyle;html=1;verticalAlign=bottom;endArrow=open;endSize=8;strokeColor=#ff0000;rounded=0;exitX=0;exitY=0.5;exitDx=0;exitDy=0;exitPerimeter=0;entryX=0.436;entryY=-0.06;entryDx=0;entryDy=0;entryPerimeter=0;" edge="1" parent="1" source="ndzj0iuBM3xcI90dh0e0-40" target="ndzj0iuBM3xcI90dh0e0-45">
          <mxGeometry relative="1" as="geometry">
            <mxPoint x="-540" y="-100" as="targetPoint" />
            <mxPoint x="-420" y="-170" as="sourcePoint" />
          </mxGeometry>
        </mxCell>
        <mxCell id="ndzj0iuBM3xcI90dh0e0-54" style="edgeStyle=orthogonalEdgeStyle;rounded=0;orthogonalLoop=1;jettySize=auto;html=1;" edge="1" parent="1" source="ndzj0iuBM3xcI90dh0e0-45" target="ndzj0iuBM3xcI90dh0e0-52">
          <mxGeometry relative="1" as="geometry" />
        </mxCell>
        <mxCell id="ndzj0iuBM3xcI90dh0e0-55" style="edgeStyle=orthogonalEdgeStyle;rounded=0;orthogonalLoop=1;jettySize=auto;html=1;entryX=0.5;entryY=0;entryDx=0;entryDy=0;" edge="1" parent="1" source="ndzj0iuBM3xcI90dh0e0-45" target="ndzj0iuBM3xcI90dh0e0-53">
          <mxGeometry relative="1" as="geometry" />
        </mxCell>
        <mxCell id="ndzj0iuBM3xcI90dh0e0-57" style="edgeStyle=orthogonalEdgeStyle;rounded=0;orthogonalLoop=1;jettySize=auto;html=1;entryX=0.5;entryY=0;entryDx=0;entryDy=0;" edge="1" parent="1" source="ndzj0iuBM3xcI90dh0e0-45" target="ndzj0iuBM3xcI90dh0e0-56">
          <mxGeometry relative="1" as="geometry" />
        </mxCell>
        <mxCell id="ndzj0iuBM3xcI90dh0e0-45" value="account" style="html=1;whiteSpace=wrap;" vertex="1" parent="1">
          <mxGeometry x="-600" y="-90" width="110" height="50" as="geometry" />
        </mxCell>
        <mxCell id="ndzj0iuBM3xcI90dh0e0-46" value="add" style="html=1;whiteSpace=wrap;" vertex="1" parent="1">
          <mxGeometry x="-490" y="-90" width="110" height="50" as="geometry" />
        </mxCell>
        <mxCell id="ndzj0iuBM3xcI90dh0e0-47" value="explore" style="html=1;whiteSpace=wrap;" vertex="1" parent="1">
          <mxGeometry x="-380" y="-90" width="110" height="50" as="geometry" />
        </mxCell>
        <mxCell id="ndzj0iuBM3xcI90dh0e0-48" value="4" style="endArrow=open;html=1;endSize=12;startArrow=diamondThin;startSize=14;startFill=0;edgeStyle=orthogonalEdgeStyle;align=left;verticalAlign=bottom;rounded=0;entryX=0;entryY=0.5;entryDx=0;entryDy=0;exitX=0.313;exitY=0.1;exitDx=0;exitDy=0;exitPerimeter=0;" edge="1" parent="1" source="ndzj0iuBM3xcI90dh0e0-40" target="ndzj0iuBM3xcI90dh0e0-39">
          <mxGeometry x="-1" y="3" relative="1" as="geometry">
            <mxPoint x="-660" y="-260" as="sourcePoint" />
            <mxPoint x="-500" y="-260" as="targetPoint" />
            <Array as="points">
              <mxPoint x="-460" y="-189" />
              <mxPoint x="-460" y="-255" />
            </Array>
            <mxPoint as="offset" />
          </mxGeometry>
        </mxCell>
        <mxCell id="ndzj0iuBM3xcI90dh0e0-49" value="lib" style="html=1;whiteSpace=wrap;" vertex="1" parent="1">
          <mxGeometry x="-270" y="-90" width="110" height="50" as="geometry" />
        </mxCell>
        <mxCell id="ndzj0iuBM3xcI90dh0e0-50" value="" style="edgeStyle=orthogonalEdgeStyle;html=1;verticalAlign=bottom;endArrow=open;endSize=8;strokeColor=#ff0000;rounded=0;exitX=1;exitY=0.5;exitDx=0;exitDy=0;exitPerimeter=0;entryX=0.5;entryY=0;entryDx=0;entryDy=0;" edge="1" parent="1" source="ndzj0iuBM3xcI90dh0e0-40" target="ndzj0iuBM3xcI90dh0e0-49">
          <mxGeometry relative="1" as="geometry">
            <mxPoint x="-212.5" y="-95" as="targetPoint" />
            <mxPoint x="-217.5" y="-190" as="sourcePoint" />
            <Array as="points">
              <mxPoint x="-215" y="-185" />
            </Array>
          </mxGeometry>
        </mxCell>
        <mxCell id="ndzj0iuBM3xcI90dh0e0-52" value="account setting" style="html=1;whiteSpace=wrap;" vertex="1" parent="1">
          <mxGeometry x="-960" width="110" height="50" as="geometry" />
        </mxCell>
        <mxCell id="ndzj0iuBM3xcI90dh0e0-53" value="suggest setting" style="html=1;whiteSpace=wrap;" vertex="1" parent="1">
          <mxGeometry x="-850" width="110" height="50" as="geometry" />
        </mxCell>
        <mxCell id="ndzj0iuBM3xcI90dh0e0-56" value="Object" style="html=1;whiteSpace=wrap;" vertex="1" parent="1">
          <mxGeometry x="-740" width="110" height="50" as="geometry" />
        </mxCell>
      </root>
    </mxGraphModel>
  </diagram>
</mxfile>
